<?xml version="1.0" encoding="utf-8"?>
<!-- Generator: Adobe Illustrator 23.0.2, SVG Export Plug-In . SVG Version: 6.00 Build 0)  -->
<svg version="1.2" baseProfile="tiny" id="Слой_1"
	 xmlns="http://www.w3.org/2000/svg" xmlns:xlink="http://www.w3.org/1999/xlink" x="0px" y="0px" viewBox="0 0 1011.06 268.09"
	 xml:space="preserve">
<g>
	<linearGradient id="SVGID_1_" gradientUnits="userSpaceOnUse" x1="109.8743" y1="145.4658" x2="147.6412" y2="113.7755">
		<stop  offset="0" style="stop-color:#FFC600"/>
		<stop  offset="0.3302" style="stop-color:#FF9000"/>
		<stop  offset="0.6274" style="stop-color:#FF6600"/>
		<stop  offset="0.8603" style="stop-color:#FF4C00"/>
		<stop  offset="1" style="stop-color:#FF4300"/>
	</linearGradient>
	<path fill="url(#SVGID_1_)" d="M128.9,104.51c-13.29-0.1-24.74,11.52-24.72,25.1c0.02,13.64,11.38,25.21,24.68,25.14
		c13.31-0.07,24.66-11.83,24.47-25.36C153.13,115.87,142.08,104.61,128.9,104.51z"/>
	<linearGradient id="SVGID_2_" gradientUnits="userSpaceOnUse" x1="37.3022" y1="209.3518" x2="218.3097" y2="57.4685">
		<stop  offset="0" style="stop-color:#FFC600"/>
		<stop  offset="0.3302" style="stop-color:#FF9000"/>
		<stop  offset="0.6274" style="stop-color:#FF6600"/>
		<stop  offset="0.8603" style="stop-color:#FF4C00"/>
		<stop  offset="1" style="stop-color:#FF4300"/>
	</linearGradient>
	<path fill="url(#SVGID_2_)" d="M238.96,151.26c-13.37-11.66-13.48-24.46-0.25-36c4.48-3.91,6.32-8.37,4.33-13.83
		c-3.09-8.46-6.57-16.78-10.03-25.09c-2.88-6.93-7.84-9.5-15.62-8.85c-15.76,1.31-25.45-8.72-24.09-24.59
		c0.6-7.03-1.79-11.82-8.01-14.54c-8.25-3.61-16.63-6.95-25.02-10.21c-6.13-2.38-10.91-0.52-15.22,4.51
		c-11.06,12.9-24.19,12.83-35.45-0.15c-4.17-4.8-8.93-6.36-14.61-4.19c-8.67,3.31-17.23,6.91-25.71,10.67
		c-5.95,2.64-7.99,7.34-7.52,13.99c1.2,16.98-8.09,25.98-25.35,24.85c-5.92-0.38-10.39,1.54-12.77,6.84
		c-3.9,8.71-7.52,17.57-10.92,26.49c-2.32,6.08-0.35,10.83,4.73,15.1c11.18,9.42,11.23,25.57,0.02,34.96
		c-5.19,4.34-6.79,9.27-4.54,15.23c3.28,8.68,6.94,17.22,10.71,25.7c2.5,5.63,6.99,7.74,13.3,7.3c17.33-1.21,26.59,7.81,25.39,24.79
		c-0.47,6.65,1.78,11.32,7.65,13.97c7.96,3.6,16.05,6.94,24.19,10.1c5.73,2.22,11.19,2.23,15.54-3.28c1.76-2.22,1.78-6.73-0.41-8.69
		c-1.4-1.25-5.49-3.22-3.86-5.6c0.84-1.22,2.61-0.9,3.89-0.93c1.83-0.04,3.84-0.06,5.75-0.03c3.58,0.06,7.08,0.03,10.77,0.05
		c4.35,0.03,8.7-0.11,13.04-0.14c2.13-0.02,4.27-0.03,6.4-0.03c1.49-0.01,3.42-0.27,4.27,1.29c0.48,0.89,0.39,2.04-0.14,2.9
		c-0.55,0.89-1.51,1.51-2.58,2c-2.01,0.92-2.74,5.41-1.5,7.23c4.81,7.02,8.35,7.93,16.61,5.04c8.49-2.97,16.68-6.82,24.88-10.55
		c5.32-2.42,7.25-6.77,6.97-12.7c-0.84-18.13,7.48-26.57,25.32-25.73c5.84,0.27,10.43-1.36,12.81-6.76
		c3.96-8.99,7.71-18.08,11.2-27.26C245.18,159.69,243.44,155.16,238.96,151.26z M176.49,179.44c-2.54,6.03-4.3,12.42-6.08,18.75
		c-0.85,3.03-2.4,4.21-5.32,3.86c-0.49-0.06-1,0.05-1.48-0.01c-11.73-1.41-22.5,0.35-31.21,9.48c-1.28,1.34-3.23,2.49-5.11,1.76
		c-2.09-0.82-3.63-2.24-5.18-3.81c-1.49-1.51-3.2-2.83-5.01-3.94c-3.43-2.09-7.31-3.32-11.3-3.8c-3.75-0.45-7.56-0.29-11.3,0.2
		c-5.11,0.66-7.36-1.48-8.57-6.41c-1.56-6.38-3.66-12.64-5.9-18.81c-1.15-3.18-0.55-5.17,2.28-6.57c4.94-2.45,5.71-5.56,3.96-11.25
		c-12.21-39.7,4.27-84.5,38.61-106.79c2.99-1.94,5.1-1.9,7.95,0.1c25.49,17.85,39.38,44.88,42.07,75.63
		c0.23,2.65,0.24,5.3,0.09,7.93c-0.49,8.41-2.65,16.73-4.65,24.88c-0.95,3.88-0.99,6.47,2.73,8.26
		C177.82,171.19,178.6,174.42,176.49,179.44z"/>
</g>
<text transform="matrix(1 0 0 1 284.1915 177.2291)" font-family="'Moon-Bold'" font-size="139.2336px">A</text>
<text transform="matrix(1 0 0 1 376.3211 177.2291)" font-family="'Moon-Bold'" font-size="139.2336px">P</text>
<text transform="matrix(1 0 0 1 460.0886 177.2291)" font-family="'Moon-Bold'" font-size="139.2336px">I</text>
<text transform="matrix(1 0 0 1 500.0082 174.3998)" font-family="'Moon-Light'" font-size="139.578px">c</text>
<text transform="matrix(1 0 0 1 594.3154 174.3998)" font-family="'Moon-Light'" font-size="139.578px">e</text>
<text transform="matrix(1 0 0 1 673.0156 174.3998)" font-family="'Moon-Light'" font-size="139.578px">n</text>
<text transform="matrix(1 0 0 1 773.1159 174.3998)" font-family="'Moon-Light'" font-size="139.578px">t</text>
<text transform="matrix(1 0 0 1 845.137 174.3998)" font-family="'Moon-Light'" font-size="139.578px">e</text>
<text transform="matrix(1 0 0 1 923.8372 174.3998)" font-family="'Moon-Light'" font-size="139.578px">r</text>
</svg>
